Coordinates
version=1
nRows=26
nColumns=27
inDegrees=yes

Units are S.I. units (second, meters, Newtons, ...)
If the header above contains a line with 'inDegrees', this indicates whether rotational values are in degrees (yes) or radians (no).

endheader
time	pelvis_rotation	pelvis_tilt	pelvis_list	pelvis_tx	pelvis_ty	pelvis_tz	hip_flexion_r	hip_adduction_r	hip_rotation_r	knee_angle_r	knee_rotation_r	knee_adduction_r	knee_angle_r_beta	ankle_angle_r	subtalar_angle_r	mtp_angle_r	hip_flexion_l	hip_adduction_l	hip_rotation_l	knee_angle_l	knee_rotation_l	knee_adduction_l	knee_angle_l_beta	ankle_angle_l	subtalar_angle_l	mtp_angle_l
      5.38000000	      9.59663677	    -47.26860108	      6.53982927	     -0.07075135	      0.60512501	     -1.14652199	    120.46226452	    -43.43827240	      7.85347729	     83.01451303	      0.00000000	      0.00000000	      1.44887658	      4.87351204	      0.00000000	      0.00000000	    116.44246478	    -30.27158164	      1.39124584	     75.98416666	      0.00000000	      0.00000000	      1.32617389	     -4.22321022	      0.00000000	      0.00000000
      5.38500000	      9.62847302	    -47.33492361	      6.55500427	     -0.07074851	      0.60739678	     -1.14673936	    120.09767753	    -43.46163822	      7.53049912	     82.60063716	      0.00000000	      0.00000000	      1.44165308	      4.76146967	      0.00000000	      0.00000000	    116.13893069	    -30.19296978	      1.17504709	     75.58701047	      0.00000000	      0.00000000	      1.31924220	     -4.33675673	      0.00000000	      0.00000000
      5.39000000	      9.65517869	    -47.34699834	      6.59244500	     -0.07067676	      0.60963247	     -1.14696771	    119.71054348	    -43.48148221	      7.24734463	     82.19292042	      0.00000000	      0.00000000	      1.43453708	      4.63766555	      0.00000000	      0.00000000	    115.75931846	    -30.12961078	      0.93089968	     75.19885127	      0.00000000	      0.00000000	      1.31246755	     -4.41285387	      0.00000000	      0.00000000
      5.39500000	      9.68775450	    -47.39901063	      6.62945499	     -0.07057891	      0.61183719	     -1.14720341	    119.35804993	    -43.49874346	      6.96030134	     81.78880414	      0.00000000	      0.00000000	      1.42748392	      4.51345788	      0.00000000	      0.00000000	    115.43235598	    -30.06536292	      0.69790828	     74.82040130	      0.00000000	      0.00000000	      1.30586235	     -4.49104287	      0.00000000	      0.00000000
      5.40000000	      9.77369826	    -47.45450772	      6.62390156	     -0.07044281	      0.61391144	     -1.14746316	    118.97888058	    -43.61261777	      6.59785623	     81.40189153	      0.00000000	      0.00000000	      1.42073102	      4.38061190	      0.00000000	      0.00000000	    115.18021404	    -29.92788492	      0.55701870	     74.46728942	      0.00000000	      0.00000000	      1.29969939	     -4.56790066	      0.00000000	      0.00000000
      5.40500000	      9.72287741	    -47.52723537	      6.63254982	     -0.07029880	      0.61610156	     -1.14769265	    118.63266867	    -43.54010485	      6.32435823	     80.99452384	      0.00000000	      0.00000000	      1.41362112	      4.25226857	      0.00000000	      0.00000000	    114.86425605	    -29.94422882	      0.31429973	     74.09535153	      0.00000000	      0.00000000	      1.29320784	     -4.66629206	      0.00000000	      0.00000000
      5.41000000	      9.71165957	    -47.44564977	      6.68151367	     -0.07004543	      0.61820036	     -1.14795197	    118.19140820	    -43.53408470	      6.09332050	     80.60363561	      0.00000000	      0.00000000	      1.40679883	      4.12217838	      0.00000000	      0.00000000	    114.37981796	    -29.93550466	      0.02288094	     73.73564768	      0.00000000	      0.00000000	      1.28692983	     -4.71210244	      0.00000000	      0.00000000
      5.41500000	      9.77575236	    -47.45985183	      6.73639561	     -0.06976842	      0.62021023	     -1.14823814	    117.83833547	    -43.59345907	      5.84052701	     80.23600295	      0.00000000	      0.00000000	      1.40038243	      3.96464985	      0.00000000	      0.00000000	    114.03971294	    -29.85860580	     -0.21251773	     73.40197994	      0.00000000	      0.00000000	      1.28110623	     -4.75586711	      0.00000000	      0.00000000
      5.42000000	      9.73982072	    -47.50120079	      6.73505368	     -0.06952957	      0.62223667	     -1.14844580	    117.47193483	    -43.54456358	      5.56937448	     79.85548946	      0.00000000	      0.00000000	      1.39374122	      3.91033929	      0.00000000	      0.00000000	    113.72587282	    -29.86272597	     -0.42688208	     73.05161584	      0.00000000	      0.00000000	      1.27499122	     -4.86503182	      0.00000000	      0.00000000
      5.42500000	      9.76171717	    -47.47356712	      6.77942611	     -0.06923121	      0.62417647	     -1.14869602	    117.09570782	    -43.56281697	      5.34482656	     79.49903219	      0.00000000	      0.00000000	      1.38751986	      3.79338354	      0.00000000	      0.00000000	    113.33868504	    -29.81859043	     -0.66551842	     72.71673375	      0.00000000	      0.00000000	      1.26914643	     -4.92373967	      0.00000000	      0.00000000
      5.43000000	      9.83559869	    -47.45284748	      6.79903389	     -0.06887686	      0.62611172	     -1.14897917	    116.67895324	    -43.65660801	      5.04641572	     79.13812445	      0.00000000	      0.00000000	      1.38122084	      3.68444564	      0.00000000	      0.00000000	    112.99490585	    -29.70759742	     -0.84163544	     72.38675912	      0.00000000	      0.00000000	      1.26338728	     -4.98161538	      0.00000000	      0.00000000
      5.43500000	      9.83167590	    -47.45139479	      6.82882576	     -0.06852532	      0.62801994	     -1.14923825	    116.31659573	    -43.64672354	      4.81596938	     78.78008887	      0.00000000	      0.00000000	      1.37497194	      3.55910067	      0.00000000	      0.00000000	    112.64198807	    -29.69280950	     -1.07571777	     72.06731685	      0.00000000	      0.00000000	      1.25781196	     -5.03314033	      0.00000000	      0.00000000
      5.44000000	      9.87204844	    -47.42369487	      6.85640171	     -0.06816094	      0.62987481	     -1.14948463	    115.92124640	    -43.68621838	      4.56458766	     78.43276940	      0.00000000	      0.00000000	      1.36891007	      3.45313392	      0.00000000	      0.00000000	    112.29089120	    -29.62900148	     -1.27397761	     71.75582799	      0.00000000	      0.00000000	      1.25237546	     -5.09029927	      0.00000000	      0.00000000
      5.44500000	      9.88249765	    -47.41874510	      6.88644545	     -0.06771184	      0.63176515	     -1.14975868	    115.55071258	    -43.69884214	      4.32824371	     78.08298576	      0.00000000	      0.00000000	      1.36280519	      3.35210774	      0.00000000	      0.00000000	    111.93450316	    -29.59456222	     -1.49616984	     71.43423515	      0.00000000	      0.00000000	      1.24676260	     -5.15582327	      0.00000000	      0.00000000
      5.45000000	      9.88248573	    -47.39505636	      6.90578165	     -0.06725563	      0.63360675	     -1.15002056	    115.16077830	    -43.70277426	      4.09191028	     77.73895133	      0.00000000	      0.00000000	      1.35680066	      3.25578094	      0.00000000	      0.00000000	    111.57279038	    -29.56750612	     -1.70857581	     71.12857145	      0.00000000	      0.00000000	      1.24142776	     -5.20842667	      0.00000000	      0.00000000
      5.45500000	      9.95187877	    -47.39133800	      6.92268604	     -0.06679579	      0.63543638	     -1.15031125	    114.76721410	    -43.78527174	      3.80511552	     77.39439858	      0.00000000	      0.00000000	      1.35078708	      3.14103607	      0.00000000	      0.00000000	    111.26438042	    -29.46034485	     -1.86021277	     70.82379328	      0.00000000	      0.00000000	      1.23610838	     -5.25676787	      0.00000000	      0.00000000
      5.46000000	      9.88668667	    -47.33171351	      6.93928103	     -0.06629952	      0.63727118	     -1.15055497	    114.35883867	    -43.71948451	      3.61108482	     77.05075844	      0.00000000	      0.00000000	      1.34478943	      3.04292480	      0.00000000	      0.00000000	    110.83994562	    -29.49254157	     -2.10582652	     70.51770114	      0.00000000	      0.00000000	      1.23076607	     -5.30564603	      0.00000000	      0.00000000
      5.46500000	      9.89454174	    -47.31719991	      6.96430967	     -0.06578201	      0.63908833	     -1.15083117	    113.98193869	    -43.72768893	      3.38045664	     76.70883794	      0.00000000	      0.00000000	      1.33882179	      2.94237096	      0.00000000	      0.00000000	    110.48970432	    -29.45295824	     -2.30596529	     70.21697815	      0.00000000	      0.00000000	      1.22551746	     -5.34924492	      0.00000000	      0.00000000
      5.47000000	      9.89477114	    -47.30796080	      6.99128869	     -0.06522159	      0.64086752	     -1.15112930	    113.61976719	    -43.73066627	      3.16417441	     76.37592342	      0.00000000	      0.00000000	      1.33301133	      2.84411997	      0.00000000	      0.00000000	    110.14540738	    -29.42329815	     -2.51263111	     69.92921696	      0.00000000	      0.00000000	      1.22049508	     -5.38833940	      0.00000000	      0.00000000
      5.47500000	      9.93574191	    -47.27440551	      7.01595533	     -0.06462551	      0.64268305	     -1.15142888	    113.20637996	    -43.78316545	      2.90369493	     76.03662391	      0.00000000	      0.00000000	      1.32708944	      2.75072867	      0.00000000	      0.00000000	    109.78455178	    -29.34094724	     -2.68433158	     69.62950054	      0.00000000	      0.00000000	      1.21526404	     -5.41819558	      0.00000000	      0.00000000
      5.48000000	      9.88330806	    -47.24730252	      7.02390461	     -0.06402824	      0.64444957	     -1.15171964	    112.82486126	    -43.73815448	      2.69735543	     75.70112134	      0.00000000	      0.00000000	      1.32123381	      2.65508617	      0.00000000	      0.00000000	    109.41554597	    -29.35145632	     -2.89281088	     69.34808565	      0.00000000	      0.00000000	      1.21035242	     -5.45245508	      0.00000000	      0.00000000
      5.48500000	      9.96290672	    -47.24355456	      7.06212182	     -0.06342473	      0.64627222	     -1.15203155	    112.43564041	    -43.82020809	      2.42600178	     75.35730335	      0.00000000	      0.00000000	      1.31523306	      2.55992151	      0.00000000	      0.00000000	    109.09116995	    -29.22463020	     -3.03841429	     69.04050778	      0.00000000	      0.00000000	      1.20498418	     -5.48529429	      0.00000000	      0.00000000
      5.49000000	      9.96737634	    -47.21020829	      7.07980726	     -0.06277743	      0.64805797	     -1.15233834	    112.02988705	    -43.83771795	      2.18194241	     75.01839921	      0.00000000	      0.00000000	      1.30931807	      2.45963701	      0.00000000	      0.00000000	    108.72433479	    -29.17035044	     -3.21504923	     68.74920450	      0.00000000	      0.00000000	      1.19989998	     -5.50122270	      0.00000000	      0.00000000
      5.49500000	     10.01919883	    -47.17533598	      7.08669715	     -0.06211230	      0.64983053	     -1.15266440	    111.59425078	    -43.91580275	      1.88526906	     74.68171527	      0.00000000	      0.00000000	      1.30344182	      2.37303058	      0.00000000	      0.00000000	    108.38734876	    -29.05047327	     -3.32485981	     68.46086618	      0.00000000	      0.00000000	      1.19486752	     -5.54610378	      0.00000000	      0.00000000
      5.50000000	     10.01940348	    -47.15758779	      7.05250841	     -0.06142489	      0.65165818	     -1.15298877	    111.13174461	    -43.94836034	      1.55489433	     74.32312793	      0.00000000	      0.00000000	      1.29718329	      2.26757661	      0.00000000	      0.00000000	    108.06036164	    -28.97039693	     -3.43356494	     68.16703142	      0.00000000	      0.00000000	      1.18973914	     -5.53571875	      0.00000000	      0.00000000
      5.50500000	      9.94238085	    -47.11005909	      7.12646372	     -0.06075012	      0.65336028	     -1.15326377	    110.82667464	    -43.85438450	      1.47182642	     74.01436348	      0.00000000	      0.00000000	      1.29179434	      2.17724257	      0.00000000	      0.00000000	    107.61869770	    -29.02462236	     -3.73528227	     67.88416405	      0.00000000	      0.00000000	      1.18480217	     -5.56824819	      0.00000000	      0.00000000
